<svg version="1.2" xmlns="http://www.w3.org/2000/svg" viewBox="0 0 288 288" width="288" height="288">.
<g id="bg">
<defs><linearGradient id="P" gradientUnits="userSpaceOnUse"/><linearGradient id="g1" x2="1" href="#P" gradientTransform="matrix(0,50.558,-50.56,0,265.248,22.69)"><stop stop-color="#b27f2a"/><stop offset=".33" stop-color="#f4dd62"/><stop offset=".52" stop-color="#f4e38b"/><stop offset=".66" stop-color="#f4dd62"/><stop offset="1" stop-color="#b27f2a"/></linearGradient><linearGradient id="g2" x2="1" href="#P" gradientTransform="matrix(42.326,41.043,-41.045,42.328,207.732,-5.601)"><stop stop-color="#0d0e19"/><stop offset=".6" stop-color="#20222a"/><stop offset="1" stop-color="#4e5266"/></linearGradient><linearGradient id="g3" x2="1" href="#P" gradientTransform="matrix(-40.893,-40.376,40.377,-40.895,275.787,111.628)"><stop stop-color="#0d0e19"/><stop offset=".6" stop-color="#20222a"/><stop offset="1" stop-color="#4e5266"/></linearGradient><linearGradient id="g4" x2="1" href="#P" gradientTransform="matrix(-45.471,50.661,-50.663,-45.473,292.913,17.058)"><stop stop-color="#0d0e19"/><stop offset=".6" stop-color="#20222a"/><stop offset="1" stop-color="#4e5266"/></linearGradient><linearGradient id="g5" x2="1" href="#P" gradientTransform="matrix(-57.561,51.165,-51.167,-57.563,256.052,59.196)"><stop stop-color="#0d0e19"/><stop offset=".6" stop-color="#20222a"/><stop offset="1" stop-color="#4e5266"/></linearGradient><linearGradient id="g6" x2="1" href="#P" gradientTransform="matrix(34.415,0,0,142.85,224.966,40.37)"><stop stop-color="#b27f2a"/><stop offset=".33" stop-color="#f4dd62"/><stop offset=".52" stop-color="#f4e38b"/><stop offset=".66" stop-color="#f4dd62"/><stop offset="1" stop-color="#b27f2a"/></linearGradient><linearGradient id="g7" x2="1" href="#P" gradientTransform="matrix(34.416,0,0,36.383,224.966,45.455)"><stop stop-color="#b27f2a"/><stop offset=".33" stop-color="#f4dd62"/><stop offset=".52" stop-color="#f4e38b"/><stop offset=".66" stop-color="#f4dd62"/><stop offset="1" stop-color="#b27f2a"/></linearGradient></defs><style>.a{fill:url(#g1)}.b{fill:url(#g2)}.c{fill:url(#g3)}.d{fill:url(#g4)}.e{fill:url(#g5)}.f{fill:url(#g6)}.g{fill:url(#g7)}</style><path class="a" d="m238.5 76.3l-26.8-26.8 26.8-26.7 26.7 26.7z"/><path fill-rule="evenodd" class="b" d="m238.5 24.2l-12.7 12.7-12.6 12.6h25.3z"/><path class="c" d="m238.5 74.8l12.6-12.6 12.7-12.7h-25.3z"/><path class="d" d="m263.8 49.5l-12.7-12.6-12.6-12.7v25.3z"/><path class="e" d="m213.2 49.5l12.6 12.7 12.7 12.6v-25.3z"/><path class="f" d="m231.8 45.7h3.4v10.8h-3.4zm1.7-5.4c1.1 0 1.9 0.9 1.9 2 0 1.1-0.8 1.9-1.9 1.9-1.1 0-1.9-0.8-1.9-1.9 0-1.1 0.8-2 1.9-2z"/>
</g>
<path class="g" d="m237.3 45.7h3.2v1.5c0.5-0.9 1.6-1.7 3.2-1.7 3.4 0 4 2.2 4 5.1v5.9h-3.3v-5.2c0-1.3-0.1-2.9-1.8-2.9-1.7 0-2 1.4-2 2.8v5.3h-3.3z"/>
</svg>