<svg version="1.2" xmlns="http://www.w3.org/2000/svg" viewBox="0 0 288 288" width="288" height="288">


<g id="bg">
<defs>
<linearGradient id="P" gradientUnits="userSpaceOnUse"/><linearGradient id="g1" x2="1" href="#P" gradientTransform="matrix(0,50.557,-50.557,0,78.613,149.516)"><stop stop-color="#b27f2a"/><stop offset=".33" stop-color="#f4dd62"/><stop offset=".52" stop-color="#f4e38b"/><stop offset=".66" stop-color="#f4dd62"/><stop offset="1" stop-color="#b27f2a"/></linearGradient><linearGradient id="g2" x2="1" href="#P" gradientTransform="matrix(42.326,41.043,-41.045,42.328,21.099,121.224)"><stop stop-color="#0d0e19"/><stop offset=".6" stop-color="#20222a"/><stop offset="1" stop-color="#4e5266"/></linearGradient><linearGradient id="g3" x2="1" href="#P" gradientTransform="matrix(-40.893,-40.376,40.377,-40.895,89.154,238.453)"><stop stop-color="#0d0e19"/><stop offset=".6" stop-color="#20222a"/><stop offset="1" stop-color="#4e5266"/></linearGradient><linearGradient id="g4" x2="1" href="#P" gradientTransform="matrix(-45.471,50.661,-50.663,-45.473,106.28,143.883)"><stop stop-color="#0d0e19"/><stop offset=".6" stop-color="#20222a"/><stop offset="1" stop-color="#4e5266"/></linearGradient><linearGradient id="g5" x2="1" href="#P" gradientTransform="matrix(-57.561,51.165,-51.167,-57.563,69.419,186.021)"><stop stop-color="#0d0e19"/><stop offset=".6" stop-color="#20222a"/><stop offset="1" stop-color="#4e5266"/></linearGradient><linearGradient id="g6" x2="1" href="#P" gradientTransform="matrix(15.936,0,0,15.929,43.992,168.6)"><stop stop-color="#b27f2a"/><stop offset=".33" stop-color="#f4dd62"/><stop offset=".52" stop-color="#f4e38b"/><stop offset=".66" stop-color="#f4dd62"/><stop offset="1" stop-color="#b27f2a"/></linearGradient></defs><style>.a{fill:url(#g1)}.b{fill:url(#g2)}.c{fill:url(#g3)}.d{fill:url(#g4)}.e{fill:url(#g5)}.f{fill:url(#g6)}</style>


<path class="a" d="m51.9 203.1l-26.8-26.8 26.8-26.7 26.7 26.7z"/>
<path class="b" d="m51.9 151.1l-12.7 12.6-12.6 12.6h25.3z"/><path class="c" d="m51.9 201.6l12.6-12.6 12.6-12.7h-25.2z"/><path class="d" d="m77.1 176.3l-12.6-12.6-12.6-12.6v25.2z"/><path class="e" d="m26.6 176.3l12.6 12.7 12.7 12.6v-25.3z"/>
</g>

<path class="f" d="m59.8 172.6c-0.1-1.1-0.5-2-1.3-2.7-0.8-0.8-1.8-1.2-2.9-1.2-1.9-0.1-6.3-0.2-7.9 0.1-1.8 0.3-2.9 1.3-3.4 3.1-0.4 1.3-0.3 7.6-0.1 8.9 0.3 1.9 1.4 3 3.2 3.5 1.2 0.3 7.4 0.3 8.8 0.1 1.8-0.3 3-1.4 3.5-3.2 0.4-1.4 0.2-7.3 0.1-8.6zm-1.5 8c-0.2 1.4-1.1 2.2-2.5 2.4-1.3 0.1-7 0.2-8.2-0.1-1.2-0.4-1.8-1.2-2-2.3-0.2-1.1-0.2-6.6 0-8 0.2-1.4 1.1-2.3 2.5-2.4 1.4-0.2 6.5-0.2 7.9 0 1.4 0.2 2.2 1.1 2.4 2.5 0.1 1.3 0.1 6.5-0.1 7.9zm-6.3-8.1c-2.3 0-4.1 1.8-4.1 4.1 0 2.2 1.8 4 4.1 4 2.2 0.1 4-1.8 4-4 0-2.3-1.8-4.1-4-4.1zm-0.1 6.7c-1.4 0-2.6-1.2-2.6-2.6 0-1.5 1.2-2.7 2.7-2.7 1.4 0 2.6 1.2 2.6 2.7 0 1.4-1.2 2.6-2.7 2.6zm5.3-6.9c0 0.6-0.5 1-1 1-0.5 0-0.9-0.4-1-1 0-0.5 0.5-0.9 1-0.9 0.5 0 1 0.4 1 0.9z"/>

</svg>