<svg version="1.2" xmlns="http://www.w3.org/2000/svg" viewBox="0 0 288 288" width="288" height="288">

<g id="bg">
<defs><linearGradient id="P" gradientUnits="userSpaceOnUse"/><linearGradient id="g1" x2="1" href="#P" gradientTransform="matrix(0,50.558,-50.559,0,78.614,22.69)"><stop stop-color="#b27f2a"/><stop offset=".33" stop-color="#f4dd62"/><stop offset=".52" stop-color="#f4e38b"/><stop offset=".66" stop-color="#f4dd62"/><stop offset="1" stop-color="#b27f2a"/></linearGradient><linearGradient id="g2" x2="1" href="#P" gradientTransform="matrix(42.326,41.043,-41.045,42.328,21.098,-5.601)"><stop stop-color="#0d0e19"/><stop offset=".6" stop-color="#20222a"/><stop offset="1" stop-color="#4e5266"/></linearGradient><linearGradient id="g3" x2="1" href="#P" gradientTransform="matrix(-40.894,-40.377,40.377,-40.894,89.155,111.628)"><stop stop-color="#0d0e19"/><stop offset=".6" stop-color="#20222a"/><stop offset="1" stop-color="#4e5266"/></linearGradient><linearGradient id="g4" x2="1" href="#P" gradientTransform="matrix(-45.472,50.662,-50.661,-45.472,106.28,17.057)"><stop stop-color="#0d0e19"/><stop offset=".6" stop-color="#20222a"/><stop offset="1" stop-color="#4e5266"/></linearGradient><linearGradient id="g5" x2="1" href="#P" gradientTransform="matrix(-57.561,51.165,-51.167,-57.563,69.418,59.196)"><stop stop-color="#0d0e19"/><stop offset=".6" stop-color="#20222a"/><stop offset="1" stop-color="#4e5266"/></linearGradient><linearGradient id="g6" x2="1" href="#P" gradientTransform="matrix(19.393,0,0,18.501,42,40.412)"><stop stop-color="#b27f2a"/><stop offset=".33" stop-color="#f4dd62"/><stop offset=".52" stop-color="#f4e38b"/><stop offset=".66" stop-color="#f4dd62"/><stop offset="1" stop-color="#b27f2a"/></linearGradient></defs><style>.a{fill:url(#g1)}.b{fill:url(#g2)}.c{fill:url(#g3)}.d{fill:url(#g4)}.e{fill:url(#g5)}.f{fill:url(#g6)}</style><path class="a" d="m51.9 76.3l-26.8-26.8 26.8-26.7 26.7 26.7z"/><path class="b" d="m51.9 24.2l-12.7 12.7-12.6 12.6h25.3z"/><path class="c" d="m51.9 74.8l12.6-12.6 12.6-12.7h-25.2z"/><path class="d" d="m77.1 49.5l-12.6-12.6-12.6-12.7v25.3z"/><path class="e" d="m26.6 49.5l12.6 12.7 12.7 12.6v-25.3z"/>
</g>
<path fill-rule="evenodd" class="f" d="m53.6 48.6l6.2-8.2h-2.3l-5 6.7-5-6.7h-5.5l7.8 10.4-6.2 8.1h2.3l5-6.7 5 6.7h5.5zm-9-6.8h2.2l11.9 15.8h-2.2z"/>
</svg>
