<svg version="1.2" xmlns="http://www.w3.org/2000/svg" viewBox="0 0 80 80" width="80" height="80"><defs><linearGradient id="P" gradientUnits="userSpaceOnUse"/><linearGradient id="g1" x2="1" href="#P" gradientTransform="matrix(80.232,0,0,80.232,.817,.295)"><stop stop-color="#b07515"/><stop offset=".14" stop-color="#f5d77f"/><stop offset=".26" stop-color="#ffffd7"/><stop offset=".36" stop-color="#f5d77f"/><stop offset=".49" stop-color="#b07515"/><stop offset=".61" stop-color="#f5d77f"/><stop offset=".74" stop-color="#ffffd7"/><stop offset=".84" stop-color="#f5d77f"/><stop offset="1" stop-color="#b07515"/></linearGradient><linearGradient id="g2" x2="1" href="#P" gradientTransform="matrix(77.016,77.016,-77.015,77.015,39.592,-37.952)"><stop stop-color="#b07515"/><stop offset=".14" stop-color="#f5d77f"/><stop offset=".26" stop-color="#ffffd7"/><stop offset=".36" stop-color="#f5d77f"/><stop offset=".49" stop-color="#b07515"/><stop offset=".61" stop-color="#f5d77f"/><stop offset=".74" stop-color="#ffffd7"/><stop offset=".84" stop-color="#f5d77f"/><stop offset="1" stop-color="#b07515"/></linearGradient><linearGradient id="g3" x2="1" href="#P" gradientTransform="matrix(69.8,0,0,69.802,4.743,4.888)"><stop stop-color="#b07515"/><stop offset=".14" stop-color="#f5d77f"/><stop offset=".26" stop-color="#ffffd7"/><stop offset=".36" stop-color="#f5d77f"/><stop offset=".49" stop-color="#b07515"/><stop offset=".61" stop-color="#f5d77f"/><stop offset=".74" stop-color="#ffffd7"/><stop offset=".84" stop-color="#f5d77f"/><stop offset="1" stop-color="#b07515"/></linearGradient><linearGradient id="g4" x2="1" href="#P" gradientTransform="matrix(62.666,-62.666,62.667,62.667,-27.308,38.449)"><stop stop-color="#0f1115"/><stop offset=".14" stop-color="#1c2228"/><stop offset=".26" stop-color="#232a32"/><stop offset=".36" stop-color="#1c2228"/><stop offset=".49" stop-color="#0f1115"/><stop offset=".61" stop-color="#1c2228"/><stop offset=".74" stop-color="#232a32"/><stop offset=".84" stop-color="#1c2228"/><stop offset="1" stop-color="#0f1115"/></linearGradient><linearGradient id="g5" x2="1" href="#P" gradientTransform="matrix(53.589,-53.589,53.589,53.589,-17.598,38.654)"><stop stop-color="#161a1f"/><stop offset=".14" stop-color="#2a323b"/><stop offset=".26" stop-color="#343f4a"/><stop offset=".36" stop-color="#2a323b"/><stop offset=".49" stop-color="#161a1f"/><stop offset=".61" stop-color="#2a323b"/><stop offset=".74" stop-color="#343f4a"/><stop offset=".84" stop-color="#2a323b"/><stop offset="1" stop-color="#161a1f"/></linearGradient><linearGradient id="g6" x2="1" href="#P" gradientTransform="matrix(53.589,-53.589,53.589,53.589,-17.598,38.654)"><stop stop-color="#161a1f"/><stop offset=".14" stop-color="#2a323b"/><stop offset=".26" stop-color="#343f4a"/><stop offset=".36" stop-color="#2a323b"/><stop offset=".49" stop-color="#161a1f"/><stop offset=".61" stop-color="#2a323b"/><stop offset=".74" stop-color="#343f4a"/><stop offset=".84" stop-color="#2a323b"/><stop offset="1" stop-color="#161a1f"/></linearGradient><radialGradient id="g7" cx="0" cy="0" r="1" href="#P" gradientTransform="matrix(100.929,0,0,100.929,8.556,31.006)"><stop stop-color="#e8e8e8"/><stop offset=".05" stop-color="#a6a6a6"/><stop offset=".14" stop-color="#606060"/><stop offset="1"/></radialGradient><linearGradient id="g8" x2="1" href="#P" gradientTransform="matrix(44.759,-44.759,44.997,44.997,1.539,43.281)"><stop stop-color="#b07515"/><stop offset=".14" stop-color="#f5d77f"/><stop offset=".26" stop-color="#ffffd7"/><stop offset=".36" stop-color="#f5d77f"/><stop offset=".49" stop-color="#b07515"/><stop offset=".61" stop-color="#f5d77f"/><stop offset=".74" stop-color="#ffffd7"/><stop offset=".84" stop-color="#f5d77f"/><stop offset="1" stop-color="#b07515"/></linearGradient><linearGradient id="g9" x2="1" href="#P" gradientTransform="matrix(102.362,-102.362,95.277,95.277,-22.221,85.855)"><stop stop-color="#b07515"/><stop offset=".14" stop-color="#f5d77f"/><stop offset=".26" stop-color="#ffffd7"/><stop offset=".36" stop-color="#f5d77f"/><stop offset=".49" stop-color="#b07515"/><stop offset=".61" stop-color="#f5d77f"/><stop offset=".74" stop-color="#ffffd7"/><stop offset=".84" stop-color="#f5d77f"/><stop offset="1" stop-color="#b07515"/></linearGradient></defs><style>.a{opacity:.8;fill:url(#g1)}.b{opacity:.8;fill:url(#g2)}.c{opacity:.8;fill:url(#g3)}.d{opacity:.8;fill:url(#g4)}.e{opacity:.8;fill:url(#g5)}.f{opacity:.8;fill:url(#g6)}.g{opacity:.8;mix-blend-mode:screen;fill:url(#g7)}.h{fill:url(#g8)}.i{fill:url(#g9)}</style><path fill-rule="evenodd" class="a" d="m39.7 79.4c-21.9 0-39.5-17.6-39.5-39.5 0-21.9 17.6-39.6 39.5-39.6 21.9 0 39.6 17.7 39.6 39.6 0 21.9-17.7 39.5-39.6 39.5z"/><path fill-rule="evenodd" class="b" d="m39.7 78.7c-21.5 0-38.8-17.4-38.8-38.8 0-21.5 17.3-38.9 38.8-38.9 21.5 0 38.9 17.4 38.9 38.9 0 21.4-17.4 38.8-38.9 38.8z"/><path fill-rule="evenodd" class="c" d="m39.7 74.8c-19.3 0-35-15.6-35-34.9 0-19.4 15.7-35 35-35 19.4 0 35 15.6 35 35 0 19.3-15.6 34.9-35 34.9z"/><path fill-rule="evenodd" class="d" d="m39.7 74.1c-18.9 0-34.2-15.3-34.2-34.2 0-19 15.3-34.3 34.2-34.3 18.9 0 34.2 15.3 34.2 34.3 0 18.9-15.3 34.2-34.2 34.2z"/><path fill-rule="evenodd" class="e" d="m39.7 69.1c-16.2 0-29.2-13-29.2-29.2 0-16.2 13-29.3 29.2-29.3 16.2 0 29.3 13.1 29.3 29.3 0 16.2-13.1 29.2-29.3 29.2z"/><path fill-rule="evenodd" class="f" d="m39.7 69.1c-16.2 0-29.2-13-29.2-29.2 0-16.2 13-29.3 29.2-29.3 16.2 0 29.3 13.1 29.3 29.3 0 16.2-13.1 29.2-29.3 29.2z"/><path fill-rule="evenodd" class="g" d="m60.4 60.6c5.3-5.3 8.6-12.6 8.6-20.7 0-16.2-13.1-29.3-29.3-29.3-8.7 0-16.6 3.8-21.9 9.9 18.3 8 33.5 22.3 42.6 40.1z"/><path fill-rule="evenodd" class="h" d="m24 55c0.2-0.7 0.4-1.4 0.5-2q0.9-3.1 1.7-6.1c0.1-0.3 0-0.8-0.1-1-5.2-9.9 0.2-21.9 11-24.4 9.9-2.4 18.8 4.3 20.4 13.2 1.7 9.3-4.4 18.2-13.6 19.8-3.7 0.6-7.2 0.1-10.5-1.5-0.3-0.2-0.7-0.2-1.1-0.1-4.4 1.1-7.4 1.9-8.3 2.1zm3.9-3.9c1.7-0.4 3.3-0.8 4.8-1.2 0.4-0.2 0.8-0.1 1.1 0.1 2.9 1.7 6.1 2.3 9.4 1.8 7.6-1.2 12.9-8.4 11.7-16-1.2-7.9-8.6-13.2-16.5-11.8-9.4 1.8-14.5 12.3-9.7 20.7 0.5 0.9 0.6 1.7 0.3 2.7-0.4 1.1-0.7 2.4-1.1 3.7z"/><path fill-rule="evenodd" class="i" d="m45.4 46c-3.3-0.2-8.6-2.8-12.2-9-1.2-2.2-1.1-4.8 0.8-6.5 0.6-0.6 1.4-0.4 2.2-0.3 0.2 0 0.3 0.3 0.4 0.5q0.8 1.6 1.4 3.3c0.2 0.6-0.2 1.1-1 2.1-0.3 0.3-0.4 0.6-0.2 1 1.4 2.3 3.4 4 5.9 5q0.5 0.2 0.9-0.2c1.3-1.7 1.5-2.2 2.2-1.8 3.4 1.6 3.7 1.7 3.7 2.1 0.1 2.8-2.5 3.9-4.1 3.8z"/></svg>