<svg version="1.2" xmlns="http://www.w3.org/2000/svg" viewBox="0 0 288 288" width="288" height="288">

<g id="bg">
<defs><linearGradient id="P" gradientUnits="userSpaceOnUse"/><linearGradient id="g1" x2="1" href="#P" gradientTransform="matrix(0,50.558,-50.558,0,265.247,86.103)"><stop stop-color="#b27f2a"/><stop offset=".33" stop-color="#f4dd62"/><stop offset=".52" stop-color="#f4e38b"/><stop offset=".66" stop-color="#f4dd62"/><stop offset="1" stop-color="#b27f2a"/></linearGradient><linearGradient id="g2" x2="1" href="#P" gradientTransform="matrix(42.327,41.044,-41.047,42.33,207.732,57.81)"><stop stop-color="#0d0e19"/><stop offset=".6" stop-color="#20222a"/><stop offset="1" stop-color="#4e5266"/></linearGradient><linearGradient id="g3" x2="1" href="#P" gradientTransform="matrix(-40.892,-40.375,40.375,-40.892,275.787,175.039)"><stop stop-color="#0d0e19"/><stop offset=".6" stop-color="#20222a"/><stop offset="1" stop-color="#4e5266"/></linearGradient><linearGradient id="g4" x2="1" href="#P" gradientTransform="matrix(-45.472,50.662,-50.666,-45.475,292.914,80.47)"><stop stop-color="#0d0e19"/><stop offset=".6" stop-color="#20222a"/><stop offset="1" stop-color="#4e5266"/></linearGradient><linearGradient id="g5" x2="1" href="#P" gradientTransform="matrix(-57.56,51.164,-51.164,-57.56,256.051,122.608)"><stop stop-color="#0d0e19"/><stop offset=".6" stop-color="#20222a"/><stop offset="1" stop-color="#4e5266"/></linearGradient><linearGradient id="g6" x2="1" href="#P" gradientTransform="matrix(21.643,0,0,21.758,227.281,104.584)"><stop stop-color="#b27f2a"/><stop offset=".33" stop-color="#f4dd62"/><stop offset=".52" stop-color="#f4e38b"/><stop offset=".66" stop-color="#f4dd62"/><stop offset="1" stop-color="#b27f2a"/></linearGradient><linearGradient id="g7" x2="1" href="#P" gradientTransform="matrix(21.644,0,0,20.144,227.281,109.212)"><stop stop-color="#b27f2a"/><stop offset=".33" stop-color="#f4dd62"/><stop offset=".52" stop-color="#f4e38b"/><stop offset=".66" stop-color="#f4dd62"/><stop offset="1" stop-color="#b27f2a"/></linearGradient></defs><style>.a{fill:url(#g1)}.b{fill:url(#g2)}.c{fill:url(#g3)}.d{fill:url(#g4)}.e{fill:url(#g5)}.f{fill:url(#g6)}.g{fill:url(#g7)}</style><path class="a" d="m238.5 139.7l-26.8-26.8 26.8-26.7 26.7 26.7z"/><path class="b" d="m238.5 87.6l-12.7 12.7-12.6 12.6h25.3z"/><path class="c" d="m238.5 138.2l12.6-12.6 12.7-12.7h-25.3z"/><path class="d" d="m263.8 112.9l-12.7-12.6-12.6-12.7v25.3z"/><path class="e" d="m213.2 112.9l12.6 12.7 12.7 12.6v-25.3z"/><path fill-rule="evenodd" class="f" d="m230.1 121.9q0.1-0.5 0.3-1 0.4-1.6 0.8-3.1c0-0.2 0-0.4 0-0.5-2.7-5.1 0-11.2 5.6-12.5 5-1.2 9.5 2.2 10.4 6.8 0.8 4.7-2.3 9.2-7 10.1q-2.8 0.4-5.3-0.8c-0.2-0.1-0.4-0.1-0.6-0.1-2.2 0.6-3.8 1-4.2 1.1zm2-2c0.8-0.2 1.6-0.4 2.4-0.6 0.2-0.1 0.4 0 0.6 0.1q2.2 1.3 4.8 0.9c3.9-0.6 6.5-4.3 5.9-8.2-0.6-4-4.4-6.7-8.4-6-4.8 0.9-7.3 6.3-4.9 10.5 0.2 0.5 0.3 0.9 0.1 1.4-0.2 0.6-0.3 1.2-0.5 1.9z"/>
</g>
<path fill-rule="evenodd" class="g" d="m241 117.3c-1.7-0.1-4.4-1.4-6.2-4.6-0.7-1.1-0.6-2.4 0.4-3.3 0.3-0.3 0.7-0.2 1.1-0.1 0.1 0 0.2 0.1 0.2 0.2q0.4 0.9 0.7 1.7c0.1 0.3-0.1 0.6-0.5 1.1q-0.2 0.2-0.1 0.5 1.1 1.8 3 2.5 0.3 0.1 0.5-0.1c0.7-0.8 0.7-1.1 1.1-0.9 1.7 0.8 1.9 0.9 1.9 1.1 0 1.4-1.3 2-2.1 1.9z"/>
</svg>
