<svg version="1.2" xmlns="http://www.w3.org/2000/svg" viewBox="" width="80" height="80" stroke="red">

<g id="bg">
<defs>

<linearGradient id="P" gradientUnits="userSpaceOnUse"/>
<linearGradient id="g1" x2="1" href="#P" gradientTransform="matrix(0,50.558,-50.559,0,78.614,22.69)">
<stop stop-color="#b27f2a"/>
<stop offset=".33" stop-color="#f4dd62"/>
<stop offset=".52" stop-color="#f4e38b"/>
<stop offset=".66" stop-color="#f4dd62"/>
<stop offset="1" stop-color="#b27f2a"/>
</linearGradient>
<linearGradient id="g2" x2="1" href="#P" gradientTransform="matrix(42.326,41.043,-41.045,42.328,21.098,-5.601)">
<stop stop-color="#0d0e19"/>
<stop offset=".6" stop-color="#20222a"/>
<stop offset="1" stop-color="#4e5266"/>
</linearGradient>
<linearGradient id="g3" x2="1" href="#P" gradientTransform="matrix(-40.894,-40.377,40.377,-40.894,89.155,111.628)">
<stop stop-color="#0d0e19"/>
<stop offset=".6" stop-color="#20222a"/>
<stop offset="1" stop-color="#4e5266"/>
</linearGradient>
<linearGradient id="g4" x2="1" href="#P" gradientTransform="matrix(-45.472,50.662,-50.661,-45.472,106.28,17.057)">
<stop stop-color="#0d0e19"/>
<stop offset=".6" stop-color="#20222a"/>
<stop offset="1" stop-color="#4e5266"/>
</linearGradient>
<linearGradient id="g5" x2="1" href="#P" gradientTransform="matrix(-57.561,51.165,-51.167,-57.563,69.418,59.196)">
<stop stop-color="#0d0e19"/><stop offset=".6" stop-color="#20222a"/>
<stop offset="1" stop-color="#4e5266"/>
</linearGradient>
<linearGradient id="g6" x2="1" href="#P" gradientTransform="matrix(15.879,17.392,-33.308,30.412,56.242,25.542)">
<stop stop-color="#b27f2a"/>
<stop offset=".33" stop-color="#f4dd62"/>
<stop offset=".52" stop-color="#f4e38b"/>
<stop offset=".66" stop-color="#f4dd62"/>
<stop offset="1" stop-color="#b27f2a"/>
</linearGradient>
</defs>
<path class="a" d="m51.9 76.3l-26.8-26.8 26.8-26.7 26.7 26.7z"/>
<path class="b" d="m51.9 24.2l-12.7 12.7-12.6 12.6h25.3z"/>
<path class="c" d="m51.9 74.8l12.6-12.6 12.6-12.7h-25.2z"/>
<path class="d" d="m77.1 49.5l-12.6-12.6-12.6-12.7v25.3z"/>
<path class="e" d="m26.6 49.5l12.6 12.7 12.7 12.6v-25.3z"/>
</g>

<path fill-rule="evenodd" class="f" d="m54.7 43.1q0.9 0 1.8 0 0 0 0.2 0v-2.9q-0.5-0.1-1-0.1-0.8-0.1-1.7-0.1c-0.9 0-1.7 0.3-2.5 0.8-0.8 0.6-1.3 1.5-1.5 2.5q-0.1 0.6-0.1 1.2 0 1 0 2v0.3h-2.8v3.3h2.8v8.3h3.5v-8.3h2.8q0.2-1.7 0.4-3.3-0.3 0-0.6 0c-0.8 0-2.7 0-2.7 0 0 0 0-1.7 0.1-2.4 0-1 0.6-1.3 1.3-1.3z"/>
<style>.a{fill:url(#g1)}.b{fill:url(#g2)}.c{fill:url(#g3)}.d{fill:url(#g4)}.e{fill:url(#g5)}.f{fill:url(#g6)}</style>
</svg>